<svg width="22" height="24" viewBox="0 0 22 24" xmlns="http://www.w3.org/2000/svg"><path d="M10.5 24c-1.573 0-3.008-1.332-4.042-3.744C5.517 18.036 5 15.108 5 12c0-3.108.517-6.036 1.458-8.256C7.492 1.332 8.927 0 10.5 0s3.008 1.332 4.042 3.744C15.483 5.964 16 8.892 16 12c0 3.108-.517 6.036-1.458 8.256C13.508 22.668 12.073 24 10.5 24zm0-22.5C8.571 1.5 6.435 5.808 6.435 12S8.582 22.5 10.5 22.5c1.929 0 4.065-4.308 4.065-10.5S12.429 1.5 10.5 1.5z"/><path d="M17.312 20c-.378 0-.77-.024-1.184-.061-2.454-.257-5.323-1.272-8.058-2.862-2.735-1.59-5.042-3.559-6.495-5.565C0 9.348-.415 7.342.427 5.887c.842-1.456 2.771-2.104 5.445-1.823 2.454.257 5.323 1.272 8.058 2.862 2.735 1.578 5.042 3.559 6.495 5.553 1.575 2.176 1.99 4.17 1.148 5.625-.708 1.248-2.198 1.896-4.26 1.896zM4.688 5.532c-1.465 0-2.515.391-2.942 1.125-1.026 1.773 1.636 5.944 7.093 9.1 5.457 3.155 10.39 3.375 11.415 1.601 1.026-1.773-1.636-5.943-7.093-9.099-2.552-1.48-5.201-2.421-7.448-2.666a7.659 7.659 0 00-1.025-.061z"/><path d="M4.688 20c-2.063 0-3.553-.648-4.261-1.883C-.415 16.66 0 14.655 1.575 12.49c1.453-2.006 3.76-3.975 6.495-5.565 2.735-1.578 5.604-2.605 8.058-2.862 2.674-.281 4.603.367 5.445 1.823.842 1.455.427 3.46-1.148 5.625-1.453 2.006-3.76 3.975-6.495 5.565-2.735 1.59-5.604 2.605-8.058 2.862-.415.037-.806.061-1.184.061zM17.3 5.544c-2.161 0-5.226.844-8.461 2.715-2.552 1.48-4.7 3.302-6.031 5.137-1.185 1.639-1.575 3.082-1.062 3.962.512.88 1.953 1.272 3.955 1.064 2.247-.232 4.896-1.186 7.448-2.666 5.457-3.155 8.107-7.326 7.093-9.099-.403-.722-1.465-1.113-2.942-1.113z"/></svg>