<svg width="26" height="21" viewBox="0 0 26 21"
  xmlns="http://www.w3.org/2000/svg">
  <path d="M8.49 11.185l-.526 1.313-.196.492.359.387 1.199 1.295-.681.704-.485.501.405.567.136.189-5.884.944-.856-5.345 6.53-1.047zm.556-.935l-8.044 1.29 1.122 6.994 8.043-1.29-.923-1.287 1.231-1.274-1.735-1.872.77-1.917-.464-.644zm4.857 1.236l9.956 2.668-1.401 5.228-10.667-2.859-.075-.361.996-.399.734-.294-.254-.748-.648-1.922 1.105-1.068.254-.245zm-.993-1.131l.159.777-1.486 1.436.819 2.418-1.645.66.318 1.551 11.973 3.21 1.833-6.843-11.971-3.21zM6.462 4.153l.667-.684 1.585 1.545-.668.684-1.584-1.545zm6.979 1.493l1.545-1.584.684.667-1.545 1.585-.684-.668zM10.604 1.02h.956v3.47h-.956V1.02z"/>
</svg>
