<svg width="24" height="25" viewBox="0 0 24 25"
  xmlns="http://www.w3.org/2000/svg">
  <path d="M11.942 16.298a.746.746 0 00-.746.746v2.336a8.991 8.991 0 01-6.591-3.712A8.896 8.896 0 013.06 8.99c.13-.779.391-1.507.708-2.207l1.637 1.194a.747.747 0 00.88-1.207l-1.79-1.308A8.927 8.927 0 016.693 3.18C10.717.313 16.32 1.247 19.185 5.265c.054.078.094.161.146.239L17.596 6.77a.748.748 0 00.88 1.209l1.578-1.153a9.015 9.015 0 01.048 7.229.746.746 0 001.367.597 10.5 10.5 0 00-.187-8.721l2.269-1.655a.748.748 0 00.164-1.044.752.752 0 00-1.045-.162l-2.13 1.555c-.05-.073-.088-.15-.139-.224-3.343-4.687-9.88-5.784-14.573-2.437a10.445 10.445 0 00-2.552 2.612L1.212 3.07a.75.75 0 00-1.045.164.748.748 0 00.164 1.042l2.181 1.59c-.444.91-.755 1.879-.922 2.877a10.38 10.38 0 001.8 7.79 10.485 10.485 0 007.806 4.341v2.45a.746.746 0 101.492 0v-6.28a.746.746 0 00-.746-.746"/>
  <path d="M23.073 16.56h-7.462a.746.746 0 000 1.493h7.462a.746.746 0 100-1.492m0 2.985h-7.462a.746.746 0 100 1.492h7.462a.746.746 0 000-1.492m0 3.049h-7.649a.746.746 0 000 1.492h7.65a.746.746 0 000-1.492"/>
</svg>
