<svg width="782" height="155" viewBox="0 0 782 155" xmlns="http://www.w3.org/2000/svg" xmlns:xlink="http://www.w3.org/1999/xlink"><defs><linearGradient x1="36.819%" y1="72.252%" x2="89.271%" y2="53.881%" id="b"><stop stop-color="#35256D" offset="0%"/><stop stop-color="#5666FF" offset="100%"/></linearGradient><linearGradient x1="41.071%" y1="0%" x2="55.892%" y2="95.616%" id="c"><stop stop-color="#8EFFF6" offset="0%"/><stop stop-color="#3C4EF1" offset="100%"/></linearGradient><path d="M94.786 75.452l-6.929 2.314V64.394l6.928-2.316v13.374zm8.785 8.806l-8.785 2.936V96l8.785-2.935v-8.807zm14.643-12.72l-8.785 2.935v11.742l8.785-2.935V71.538zm0-22.506L123 47.433v10.764l-4.785 1.599V49.032zm-23.428 26.42l8.785-2.936V53.924l5.858-1.956V63.71l8.785-2.936v10.764L123 69.939v22.656C123 126.508 95.466 154 61.5 154S0 126.508 0 92.595v-75.05C0 7.854 7.867 0 17.571 0c9.705 0 17.572 7.855 17.572 17.544v71.152c0 14.534 11.8 26.317 26.357 26.317 14.283 0 25.912-11.343 26.345-25.5l6.94-2.32v-11.74zm14.643-35.226l-5.858 1.956v-7.347l5.857-2.275v7.666zm8.785 8.806l-8.785 2.936V40.226l8.785-2.965v11.771z" id="a"/></defs><g fill="none" fill-rule="evenodd"><path d="M632.376 58.614c2.843.897 5.607 2.046 8.407 3.084.557.207 1.11.427 1.868.72.08-1.629.179-3.083.213-4.54.03-1.22.533-1.919 1.818-1.909 1.772.015 3.545.04 5.317.042 4.66.006 9.32.002 14.1.002v95.794c-8.574.193-17.222 1.56-25.452-2.146-1.016-.457-1.842-.456-2.86-.02-24.277 10.371-49.548-1.288-60.38-19.548-9.342-15.749-10.097-32.098-1.293-48.326 7.252-13.368 18.63-21.72 33.515-24.951 8.355-1.815 16.65-.756 24.747 1.798zm-286.212-3.08c27.42.181 49.068 21.8 48.929 48.862-.142 27.32-22.13 49.31-49.116 49.12-27.015-.19-49.161-22.467-48.952-49.24.212-27.162 22.149-48.921 49.139-48.742zm358.32-44.12v48.994c2.493-.396 4.816-.75 7.134-1.136 5.894-.98 11.75-2.378 17.685-2.892 19.06-1.652 33.787 5.943 44.007 21.966 5.995 9.4 8.577 19.891 7.687 31.046-.744 9.309-4.477 17.516-10.273 24.768-6.666 8.343-14.97 14.411-25.377 17.173-27.63 7.33-55.205-9.436-60.464-37.595-.62-3.317-.907-6.742-.923-10.12-.134-27.389-.167-54.779-.227-82.168-.008-3.064.34-3.459 3.282-4.395 5.162-1.642 10.306-3.338 15.458-5.01.574-.186 1.15-.36 2.01-.63zM172.378 55.508c.989-.009 1.433.243 1.566 1.301.21 1.694.623 3.362.97 5.146 2.831-.82 5.525-1.677 8.258-2.378 7.942-2.033 16.036-2.78 23.859-.065 16.254 5.64 26.936 16.63 29.964 33.933.9 5.145.63 10.52.646 15.789.04 13.797-.059 27.593-.106 41.39 0 .292-.044.582-.074.942h-20.428c-.072-1.492-.2-2.944-.204-4.396-.029-12.935.036-25.87-.09-38.803-.041-4.244-.089-8.58-.943-12.708-3.081-14.9-20.92-21.46-33.24-12.478-6.21 4.525-8.952 10.623-8.931 18.178.044 15.978.037 31.956.05 47.934.002.653 0 1.305 0 2.09H153V55.527h5.226c4.718 0 9.435.024 14.153-.019zm258.496-.01c1.192-.013 1.592.383 1.678 1.514.13 1.707.398 3.404.605 5.083 3.67-1.074 7.176-2.233 10.75-3.122 22.545-5.607 41.071 8.284 47.792 21.088 2.513 4.789 3.837 9.887 4.18 15.268 1.02 16.016.573 32.041.346 48.066-.037 2.625-.005 5.251-.005 7.94-.59.045-.981.1-1.373.1-5.833.006-11.666-.023-17.498.028-1.122.01-1.536-.326-1.524-1.45.032-3.043-.023-6.086-.027-9.13l-.02-25.055c-.006-4.176-.014-8.352-.028-12.529-.02-5.536-1.235-10.745-4.448-15.38-5.006-7.22-14.247-10.397-23.347-7.99-8.534 2.257-14.746 9.598-15.433 18.32-.166 2.12-.21 4.255-.213 6.383-.013 10.009-.015 20.018-.015 30.027v16.894h-20.492v-95.94c.535-.032.978-.082 1.42-.083 5.885-.004 11.768.032 17.652-.032zm-151.506-.619v96.669h-20.182V61.59l20.182-6.712zM565.955.608v21.305c-1.019.306-2.166.64-3.308.993-6.069 1.873-11.703 4.536-16.382 8.959-5.645 5.334-8.298 11.99-8.678 19.637-.09 1.808-.013 3.624-.013 5.627h28.767v19.273h-28.857v75.136h-21.349c-.053-.803-.152-1.6-.152-2.398 0-30.99-.027-61.98.037-92.97.023-11.381 2.59-22.12 8.937-31.73 7.602-11.509 18.433-18.444 31.614-21.905 3.017-.792 6.117-1.265 9.384-1.927zm50.636 76.366c-15.614.529-27.792 13.281-27.266 28.578.52 15.126 12.975 26.822 27.809 26.764 16.057-.265 28.085-12.851 27.757-28.366-.317-15.028-13.495-27.477-28.3-26.976zm-298.167 26.994c-.265 15.47 11.825 27.984 27.235 28.19 15.52.208 28.022-12 28.248-27.583.214-14.748-12.375-27.89-26.943-28.128-15.553-.252-28.275 12.017-28.54 27.521zm386.283-.367c-.389 15.54 11.856 28.229 27.488 28.487 14.972.25 27.564-11.959 27.844-26.995.29-15.526-11.934-28.193-27.52-28.515-14.571-.3-27.443 12.206-27.812 27.023zM279.245 15.117c1.033 7.536.18 13.916-7.913 16.862-3.425 1.247-6.868 2.444-10.306 3.654-.462.163-.942.274-1.585.458.08-3.539-.453-6.942.896-10.199 1.029-2.482 2.663-4.58 5.109-5.603 4.515-1.89 9.166-3.457 13.799-5.172z" fill="#6874E2"/><g transform="translate(0 1)"><mask id="d" fill="#fff"><use xlink:href="#a"/></mask><use fill="url(#b)" xlink:href="#a"/><path d="M0 17.544C0 7.854 7.867 0 17.571 0c9.705 0 17.572 7.855 17.572 17.544v71.152c0 14.534 4.773 43.282 28.97 51.674 24.199 8.393 37.175 1.541 37.175 1.541s-3.644 19.098-43.432 17.278C23.914 157.636 0 126.508 0 92.595v-75.05z" fill="url(#c)" mask="url(#d)"/></g></g></svg>