<svg viewBox="0 0 782 294" xmlns="http://www.w3.org/2000/svg" xmlns:xlink="http://www.w3.org/1999/xlink"><defs><linearGradient x1="36.819%" y1="72.252%" x2="89.271%" y2="53.881%" id="b"><stop stop-color="#989CFC" offset="0%"/><stop stop-color="#FFF" offset="100%"/></linearGradient><linearGradient x1="41.071%" y1="0%" x2="55.892%" y2="95.616%" id="c"><stop stop-color="#FFF" offset="0%"/><stop stop-color="#CED3FF" offset="100%"/></linearGradient><path d="M94.786 75.452l-6.929 2.314V64.394l6.928-2.316v13.374zm8.785 8.806l-8.785 2.936V96l8.785-2.935v-8.807zm14.643-12.72l-8.785 2.935v11.742l8.785-2.935V71.538zm0-22.506L123 47.433v10.764l-4.785 1.599V49.032zm-23.428 26.42l8.785-2.936V53.924l5.858-1.956V63.71l8.785-2.936v10.764L123 69.939v22.656C123 126.508 95.466 154 61.5 154S0 126.508 0 92.595v-75.05C0 7.854 7.867 0 17.571 0c9.705 0 17.572 7.855 17.572 17.544v71.152c0 14.534 11.8 26.317 26.357 26.317 14.283 0 25.912-11.343 26.345-25.5l6.94-2.32v-11.74zm14.643-35.226l-5.858 1.956v-7.347l5.857-2.275v7.666zm8.785 8.806l-8.785 2.936V40.226l8.785-2.965v11.771z" id="a"/></defs><g fill="none" fill-rule="evenodd"><path d="M632.376 199.006c2.843.897 5.607 2.046 8.406 3.084.558.207 1.111.427 1.869.719.08-1.628.179-3.082.213-4.54.03-1.218.533-1.918 1.818-1.908 1.772.015 3.545.04 5.317.042 4.66.006 9.32.002 14.1.002v95.793c-8.574.194-17.222 1.561-25.452-2.145-1.016-.457-1.842-.456-2.86-.02-24.277 10.371-49.548-1.288-60.38-19.549-9.343-15.748-10.097-32.097-1.293-48.325 7.252-13.368 18.63-21.72 33.515-24.951 8.355-1.815 16.65-.756 24.747 1.798zm-286.212-3.08c27.42.181 49.068 21.8 48.929 48.862-.142 27.32-22.13 49.31-49.116 49.12-27.015-.19-49.161-22.467-48.952-49.24.212-27.162 22.149-48.921 49.139-48.742zm358.32-44.12V200.8c2.493-.396 4.816-.75 7.134-1.136 5.894-.98 11.75-2.378 17.685-2.892 19.06-1.652 33.787 5.943 44.007 21.966 5.995 9.4 8.577 19.891 7.687 31.046-.744 9.308-4.477 17.516-10.273 24.768-6.666 8.343-14.97 14.411-25.377 17.173-27.63 7.33-55.205-9.436-60.465-37.595-.62-3.317-.906-6.742-.922-10.12-.134-27.389-.167-54.779-.227-82.168-.008-3.064.34-3.459 3.282-4.395 5.161-1.642 10.306-3.338 15.458-5.01.574-.186 1.15-.36 2.01-.63zM172.377 195.9c.99-.009 1.434.243 1.567 1.301.21 1.694.623 3.362.97 5.146 2.83-.82 5.524-1.677 8.258-2.378 7.942-2.033 16.036-2.78 23.858-.065 16.254 5.64 26.936 16.63 29.965 33.933.9 5.145.63 10.52.646 15.789.04 13.797-.059 27.593-.106 41.39 0 .291-.044.582-.074.942h-20.428c-.072-1.492-.2-2.944-.204-4.396-.029-12.935.036-25.87-.09-38.804-.041-4.243-.089-8.58-.943-12.707-3.082-14.9-20.92-21.46-33.24-12.479-6.21 4.526-8.952 10.624-8.931 18.18.044 15.977.037 31.955.05 47.933v2.09H153v-95.856h5.226c4.718 0 9.435.024 14.152-.019zm258.497-.01c1.192-.014 1.592.383 1.678 1.514.13 1.707.398 3.404.605 5.083 3.67-1.074 7.176-2.233 10.75-3.122 22.545-5.607 41.07 8.284 47.791 21.088 2.514 4.789 3.838 9.887 4.181 15.267 1.02 16.017.573 32.042.346 48.067-.037 2.625-.005 5.251-.005 7.94-.59.045-.981.1-1.373.1-5.833.006-11.666-.023-17.499.028-1.121.01-1.535-.326-1.523-1.45.032-3.043-.023-6.086-.028-9.13l-.02-25.055a5231.4 5231.4 0 00-.028-12.529c-.018-5.536-1.234-10.745-4.447-15.38-5.006-7.22-14.247-10.397-23.347-7.99-8.534 2.257-14.746 9.598-15.433 18.32-.167 2.12-.21 4.255-.213 6.383-.013 10.009-.015 20.018-.015 30.027v16.894h-20.492v-95.94c.535-.032.978-.082 1.42-.083 5.885-.004 11.768.032 17.652-.032zm-151.506-.619v96.669h-20.183v-89.957l20.183-6.712zM565.955 141v21.305c-1.019.306-2.166.64-3.308.993-6.069 1.873-11.703 4.536-16.382 8.959-5.645 5.334-8.298 11.99-8.678 19.637-.09 1.807-.013 3.624-.013 5.626h28.767v19.274h-28.858v75.136h-21.348c-.053-.803-.152-1.6-.152-2.399 0-30.99-.027-61.98.037-92.97.023-11.38 2.59-22.119 8.937-31.729 7.602-11.509 18.433-18.444 31.614-21.905 3.017-.792 6.117-1.265 9.384-1.927zm50.636 76.366c-15.614.529-27.792 13.281-27.266 28.578.52 15.126 12.975 26.822 27.808 26.764 16.058-.265 28.086-12.851 27.758-28.366-.318-15.028-13.495-27.478-28.3-26.976zM318.424 244.36c-.265 15.47 11.825 27.984 27.235 28.19 15.52.208 28.022-12 28.248-27.583.214-14.749-12.376-27.89-26.943-28.128-15.553-.252-28.276 12.017-28.54 27.521zm386.282-.367c-.388 15.54 11.857 28.228 27.49 28.487 14.971.25 27.563-11.959 27.843-26.996.29-15.526-11.934-28.192-27.52-28.514-14.572-.3-27.443 12.206-27.813 27.023zM279.245 155.51c1.032 7.536.18 13.916-7.914 16.862-3.424 1.247-6.867 2.444-10.305 3.654-.462.163-.943.274-1.585.458.08-3.539-.453-6.942.896-10.199 1.029-2.482 2.663-4.58 5.108-5.603 4.516-1.89 9.167-3.457 13.8-5.172z" fill="#FFF"/><g transform="translate(0 140)"><mask id="d" fill="#fff"><use xlink:href="#a"/></mask><use fill="url(#b)" xlink:href="#a"/><path d="M0 17.544C0 7.854 7.867 0 17.571 0c9.705 0 17.572 7.855 17.572 17.544v71.152c0 14.534 4.773 43.282 28.97 51.674 24.199 8.393 37.175 1.541 37.175 1.541s-3.644 19.098-43.432 17.278C23.914 157.636 0 126.508 0 92.595v-75.05z" fill="url(#c)" mask="url(#d)"/></g><text font-family="PingFangSC-Medium, PingFang SC" font-size="120" font-weight="400" fill="#FFF" transform="translate(0 -28)"><tspan x="211" y="127">优联云</tspan></text></g></svg>