<svg width="123" height="154" viewBox="0 0 123 154" xmlns="http://www.w3.org/2000/svg" xmlns:xlink="http://www.w3.org/1999/xlink"><defs><linearGradient x1="36.819%" y1="72.252%" x2="89.271%" y2="53.881%" id="b"><stop stop-color="#35256D" offset="0%"/><stop stop-color="#5666FF" offset="100%"/></linearGradient><linearGradient x1="41.071%" y1="0%" x2="55.892%" y2="95.616%" id="c"><stop stop-color="#8EFFF6" offset="0%"/><stop stop-color="#3C4EF1" offset="100%"/></linearGradient><path d="M94.786 75.452l-6.929 2.314V64.394l6.928-2.316v13.374zm8.785 8.806l-8.785 2.936V96l8.785-2.935v-8.807zm14.643-12.72l-8.785 2.935v11.742l8.785-2.935V71.538zm0-22.506L123 47.433v10.764l-4.785 1.599V49.032zm-23.428 26.42l8.785-2.936V53.924l5.858-1.956V63.71l8.785-2.936v10.764L123 69.939v22.656C123 126.508 95.466 154 61.5 154S0 126.508 0 92.595v-75.05C0 7.854 7.867 0 17.571 0c9.705 0 17.572 7.855 17.572 17.544v71.152c0 14.534 11.8 26.317 26.357 26.317 14.283 0 25.912-11.343 26.345-25.5l6.94-2.32v-11.74zm14.643-35.226l-5.858 1.956v-7.347l5.857-2.275v7.666zm8.785 8.806l-8.785 2.936V40.226l8.785-2.965v11.771z" id="a"/></defs><g fill="none" fill-rule="evenodd"><mask id="d" fill="#fff"><use xlink:href="#a"/></mask><use fill="url(#b)" xlink:href="#a"/><path d="M0 17.544C0 7.854 7.867 0 17.571 0c9.705 0 17.572 7.855 17.572 17.544v71.152c0 14.534 4.773 43.282 28.97 51.674 24.199 8.393 37.175 1.541 37.175 1.541s-3.644 19.098-43.432 17.278C23.914 157.636 0 126.508 0 92.595v-75.05z" fill="url(#c)" mask="url(#d)"/></g></svg>