<?xml version="1.0" encoding="UTF-8"?>
<svg width="129px" height="160px" viewBox="0 0 129 160" version="1.1" xmlns="http://www.w3.org/2000/svg" xmlns:xlink="http://www.w3.org/1999/xlink">
    <!-- Generator: Sketch 61 (89581) - https://sketch.com -->
    <title>编组 17备份 2</title>
    <desc>Created with Sketch.</desc>
    <defs>
        <linearGradient x1="28.2620274%" y1="88.9258712%" x2="109.551894%" y2="37.9665937%" id="linearGradient-1">
            <stop stop-color="#696EF5" offset="0%"></stop>
            <stop stop-color="#FFFFFF" offset="100%"></stop>
        </linearGradient>
        <path d="M61.5,88.0126582 C75.1545251,88.0126582 86.383927,77.6455001 87.7233296,64.3645367 C87.7381014,64.2180658 87.7575412,63.9975732 87.7816491,63.7030591 L87.8571429,59.2911392 L87.8571429,45.9367089 L123,32.2911392 C92.6828046,67.1658431 77.5242069,84.7936071 77.5242069,85.1744313 C77.5242069,85.5552555 92.6828046,69.9169178 123,38.2594183 L123,65.5949367 C123,86.9104955 112.122327,105.68936 95.6071142,116.699487 C89.6203906,117.928057 78.986647,118.528659 64.1136423,113.370468 C39.9156979,104.978242 35.1428571,76.2303797 35.1428571,61.6962025 L35.1428571,61.6962025 C35.1428571,76.2303797 46.943352,88.0126582 61.5,88.0126582 Z" id="path-2"></path>
        <linearGradient x1="32.1468024%" y1="4.40468664%" x2="55.0777933%" y2="94.6900679%" id="linearGradient-4">
            <stop stop-color="#FFFFFF" offset="0%"></stop>
            <stop stop-color="#CED3FF" offset="100%"></stop>
        </linearGradient>
        <path d="M0.0713186649,1.6825652e-11 C23.4998901,10.4053913 35.2141758,25.0774343 35.2141758,44.016129 L35.2141758,94.6962025 C35.2141758,109.23038 39.9870166,137.978242 64.184961,146.370468 C79.0582669,151.528764 89.6921401,150.928033 95.6790442,149.699079 C85.9184115,156.206327 74.18858,160 61.5713187,160 C27.6993329,160 0.22300361,132.65921 0.0713186649,98.8749362 C0.0713186649,98.7816302 0.0713186649,98.688294 0.0713186649,98.5949367 L0.0713186649,1.6825652e-11 Z" id="path-5"></path>
    </defs>
    <g id="页面-1" stroke="none" stroke-width="1" fill="none" fill-rule="evenodd">
        <g id="画板" transform="translate(-1415.000000, -154.000000)">
            <g id="编组" transform="translate(1414.000000, 154.000000)">
                <g id="编组-17备份-2">
                    <g id="编组-16" transform="translate(7.000000, 8.688865)">
                        <g id="编组-2备份-4" transform="translate(61.500000, 78.311135) rotate(-360.000000) translate(-61.500000, -78.311135) translate(0.000000, 19.311135)">
                            <g id="路径备份-3" transform="translate(0.000000, 0.000000)">
                                <mask id="mask-3" fill="white">
                                    <use xlink:href="#path-2"></use>
                                </mask>
                                <use id="形状结合" fill="url(#linearGradient-1)" xlink:href="#path-2"></use>
                                <g id="编组-13" mask="url(#mask-3)">
                                    <g transform="translate(92.624288, 73.198544) scale(-1, -1) rotate(10.000000) translate(-92.624288, -73.198544) translate(41.124288, 24.698544)" id="编组-14">
                                        <g transform="translate(0.703251, 0.083778)">
                                            <path d="M63.9652283,34.1509438 L26.9676908,95.5866719 L0.703013789,78.5805876 L2.21346675,75.7368376 L40.5428165,40.1559759 L63.9652283,34.1509438 Z M41.9887281,0.580587569 L42.4922124,0.986837569 L41.9887281,0.580587569 Z" id="Shape备份-2" fill="#D0D2F0" fill-rule="nonzero" opacity="0.400000006"></path>
                                            <polygon id="Shape备份-3" fill="#A19EF8" fill-rule="nonzero" opacity="0.699999988" points="80.7455127 1.7390435 79.7248749 2.96631623 62.3740306 19.7390435 41.4509537 2.14813441 40.9406347 1.7390435"></polygon>
                                            <polygon id="Shape备份-4" fill="#B8BBF5" fill-rule="nonzero" opacity="0.800000012" points="94.4284396 78.7390435 63.3308786 33.1094139 68.3466142 23.7390435 87.4064097 40.4427472"></polygon>
                                            <polygon id="Shape备份-5" fill="#BFC1F5" fill-rule="nonzero" opacity="0.769999981" points="57.0924687 24.268098 2.36076142 76.5653953 41.6680785 1.56539532 42.1656395 1.97080073"></polygon>
                                            <polygon id="Shape备份-10" fill="#EBECFF" fill-rule="nonzero" opacity="0.600000024" points="71.2926522 68.0332537 25.9998647 95.252151 59.6189929 55.6785854"></polygon>
                                            <polygon id="Shape备份-6" fill="#BFC1FC" fill-rule="nonzero" points="68.3064884 24.5390435 63.439044 33.7390435 40.5428165 40.1559759 62.4655552 19.7390435"></polygon>
                                            <polygon id="Shape备份-6" fill="#787BF4" fill-rule="nonzero" opacity="0.921595982" points="90.1330097 31.1012287 85.4928927 30.0548923 82.9453807 18.4401082 81.1498431 7.11550811 101.399154 14.487493"></polygon>
                                            <polygon id="Shape备份-7" fill="#B1B0F6" fill-rule="nonzero" points="62.0869762 19.7208617 40.5428165 40.1559759 42.1845371 1.7390435"></polygon>
                                            <polygon id="Shape备份-8" fill="#FFFFFF" fill-rule="nonzero" opacity="0.229999989" points="77.7254892 4.72158949 68.449319 24.7238513 62.3029776 19.9691343"></polygon>
                                            <polygon id="Shape备份-9" fill="#A6ABFF" fill-rule="nonzero" opacity="0.300000012" points="86.6643171 40.7542357 68.0057805 24.0979857 78.8080912 2.56673575 79.7901194 1.75423575 80.2811336 1.75423575"></polygon>
                                        </g>
                                    </g>
                                </g>
                            </g>
                        </g>
                        <g id="编组-15" transform="translate(105.614945, 38.401706) rotate(37.000000) translate(-105.614945, -38.401706) translate(86.114945, 5.401706)" fill="#EBECFD">
                            <polygon id="Shape备份-11" fill-rule="nonzero" transform="translate(29.880604, 45.390342) scale(-1, -1) translate(-29.880604, -45.390342) " points="38.2952485 25.263615 35.7689327 56.2418758 25.1435365 65.517069 21.4659586 60.6367584"></polygon>
                            <polygon id="Shape备份-13" points="7.36923824 47.3765735 20.4873189 35.7699598 16.4825861 59.4703946"></polygon>
                            <path d="M12.9618965,31.4900061 C14.8103204,30.8755323 16.7546533,30.3596208 18.7948953,29.9422718 L23.2847343,23.130737 L10.6175459,23.130737 L7.30250051,33.9331218 C9.22700731,32.9188519 11.1134726,32.10448 12.9618965,31.4900061 Z" id="Fill-17备份-4" transform="translate(15.293617, 28.531929) scale(-1, 1) rotate(-104.000000) translate(-15.293617, -28.531929) "></path>
                            <path d="M18.0573485,10.0232578 C17.3406046,5.25401545 16.46788,2.23609982 15.4391745,0.969510926 L21.8730712,3.60786083 L25.573666,8.66438924 L23.0447824,12.4136135 L16.9759406,21.4110316 C18.4136231,18.5884248 18.7740923,14.7925002 18.0573485,10.0232578 Z" id="Fill-8备份-6" transform="translate(20.506420, 11.190271) scale(1, -1) rotate(3.000000) translate(-20.506420, -11.190271) "></path>
                            <path d="M12.9102338,37.101904 L4.94941695,45.1686124 L0.642945994,41.6459388 C1.48570007,41.171901 2.59673809,40.3346738 3.97606006,39.1342572 C5.35538202,37.9338406 6.23036692,37.0745329 6.60101475,36.556334 L12.9102338,37.101904 Z" id="Shape备份-13"></path>
                            <polygon id="Shape备份-14" fill-rule="nonzero" transform="translate(28.514059, 23.623790) scale(-1, -1) translate(-28.514059, -23.623790) " points="33.1446609 15.7073191 32.6043551 28.6189787 29.6263007 31.5402601 23.8834573 23.9192495"></polygon>
                        </g>
                    </g>
                    <g id="编组-2备份-5" transform="translate(48.500000, 80.000000) rotate(-360.000000) translate(-48.500000, -80.000000) ">
                        <g id="路径备份-3" transform="translate(0.000000, 0.000000)">
                            <g id="Shape-+-Shape-+-Shape-+-Shape-蒙版" transform="translate(0.928681, -0.000000)">
                                <mask id="mask-6" fill="white">
                                    <use xlink:href="#path-5"></use>
                                </mask>
                                <use id="蒙版" fill="url(#linearGradient-4)" xlink:href="#path-5"></use>
                                <g id="编组-12" mask="url(#mask-6)" fill-rule="nonzero">
                                    <g transform="translate(7.867876, 58.300435) rotate(11.000000) translate(-7.867876, -58.300435) translate(-42.632124, -13.199565)" id="Shape">
                                        <polygon stroke="none" fill="#DAEAFF" opacity="0.200000003" transform="translate(79.806599, 85.067899) scale(-1, -1) translate(-79.806599, -85.067899) " points="100.806599 34.0678992 94.9118622 104.285291 66.9118622 136.067899 58.806599 120.54616"></polygon>
                                        <path d="M62.3981727,73.0678992 L7.60732913,73.0678992 L1.98101658,139.221027 L62.3981727,73.0678992 Z" stroke="#FFFFFF" stroke-width="2" fill="#F2F8FF" opacity="0.699999988" transform="translate(32.735280, 107.067899) rotate(180.000000) translate(-32.735280, -107.067899) "></path>
                                        <polygon stroke="none" fill="#F1F6FF" opacity="0.699999988" transform="translate(78.432935, 36.529670) rotate(-360.000000) translate(-78.432935, -36.529670) " points="68.881759 0.469825324 64.6986654 72.5895151 92.1672039 35.9735788"></polygon>
                                    </g>
                                </g>
                                <g id="编组-12备份" mask="url(#mask-6)" fill-rule="nonzero">
                                    <g transform="translate(17.634608, 126.561758) rotate(11.000000) translate(-17.634608, -126.561758) translate(-32.865392, 55.561758)" id="Shape">
                                        <polygon fill="#C4D1FE" transform="translate(79.379026, 86.012781) scale(-1, -1) translate(-79.379026, -86.012781) " points="100.379026 35.0127808 94.4842892 105.230172 66.4842892 137.012781 58.379026 121.491042"></polygon>
                                        <polygon fill="#D7E3FD" transform="translate(35.306599, 70.567899) scale(-1, -1) translate(-35.306599, -70.567899) " points="69.806599 0.0678992123 0.806599035 141.067899 6.74208291 69.4605694"></polygon>
                                        <polygon fill="#CBDBFF" transform="translate(32.526099, 103.895463) rotate(180.000000) translate(-32.526099, -103.895463) " points="64.5260986 68.895463 63.7819125 69.6323051 0.526098558 138.895463 6.47958693 68.895463"></polygon>
                                        <polygon fill="#BACEFF" transform="translate(77.814553, 36.492925) rotate(-360.000000) translate(-77.814553, -36.492925) " points="68.263377 0.433079691 64.0802834 72.5527694 91.5488219 35.9368331"></polygon>
                                    </g>
                                </g>
                            </g>
                        </g>
                    </g>
                </g>
            </g>
        </g>
    </g>
</svg>