<svg width="25" height="23" viewBox="0 0 25 23" xmlns="http://www.w3.org/2000/svg"><path d="M12.96 17.308c-.57 0-.897.334-.897.906 0 .575.33.872.897.872.57 0 .866-.3.866-.872.003-.572-.293-.906-.866-.906zm11.699 2.353L14.49 1.889A1.743 1.743 0 0012.963 1a1.75 1.75 0 00-1.527.889L1.265 19.66a1.769 1.769 0 000 1.777c.319.558.891.889 1.527.889h20.334c.639 0 1.208-.334 1.527-.889a1.755 1.755 0 00.006-1.777zM2.216 20.84l10.75-18.632L23.713 20.84H2.216zm9.77-11.086l.448 6.367c.014.19.25.342.526.342.282-.003.518-.152.532-.342l.449-6.367c.049-.716-.385-1.349-.978-1.349-.592 0-1.03.633-.978 1.349z" stroke="#7D789D" stroke-width=".2"/></svg>