<svg width="507" height="495" viewBox="0 0 507 495" xmlns="http://www.w3.org/2000/svg">
    <defs>
        <linearGradient x1="-.022%" y1="49.979%" x2="99.978%" y2="49.979%" id="a">
            <stop stop-color="#ECC4D7" offset="0%" />
            <stop stop-color="#EFD4D1" offset="42%" />
            <stop stop-color="#F2EAC9" offset="100%" />
        </linearGradient>
        <linearGradient x1="0%" y1="49.986%" x2="100%" y2="49.986%" id="b">
            <stop stop-color="#FFF" stop-opacity="0" offset="2%" />
            <stop stop-color="#FFF" stop-opacity=".39" offset="58%" />
            <stop stop-color="#FFF" stop-opacity=".68" offset="68%" />
            <stop stop-color="#FFF" offset="100%" />
        </linearGradient>
        <linearGradient x1="22.301%" y1="100%" x2="77.699%" y2="0%" id="c">
            <stop stop-color="#19FFF3" offset="0%" />
            <stop stop-color="#FFF" stop-opacity="0" offset="100%" />
        </linearGradient>
        <linearGradient x1="0%" y1="50.002%" x2="100%" y2="50.002%" id="d">
            <stop stop-opacity="0" offset="0%" />
            <stop offset="99%" />
        </linearGradient>
        <linearGradient x1="0%" y1="96.775%" x2="100%" y2="3.225%" id="e">
            <stop stop-color="#19FFF3" offset="0%" />
            <stop stop-color="#FFF" stop-opacity="0" offset="100%" />
        </linearGradient>
        <linearGradient x1="0%" y1="77.678%" x2="100%" y2="22.322%" id="f">
            <stop stop-color="#19FFF3" offset="0%" />
            <stop stop-color="#FFF" stop-opacity="0" offset="100%" />
        </linearGradient>
        <linearGradient x1="50.168%" y1="52.98%" x2="49.738%" y2="45.299%" id="g">
            <stop stop-opacity="0" offset="0%" />
            <stop offset="99%" />
        </linearGradient>
        <linearGradient x1="49.16%" y1="71.78%" x2="54.6%" y2="-69.101%" id="h">
            <stop stop-opacity="0" offset="0%" />
            <stop offset="99%" />
        </linearGradient>
        <linearGradient x1="12.432%" y1="100%" x2="87.568%" y2="0%" id="i">
            <stop stop-color="#19FFF3" offset="0%" />
            <stop stop-color="#FFF" stop-opacity="0" offset="100%" />
        </linearGradient>
        <linearGradient x1="0%" y1="50%" x2="100%" y2="50%" id="j">
            <stop stop-opacity="0" offset="0%" />
            <stop offset="99%" />
        </linearGradient>
        <linearGradient x1="0%" y1="50%" x2="100.14%" y2="50%" id="k">
            <stop stop-opacity="0" offset="0%" />
            <stop offset="99%" />
        </linearGradient>
        <linearGradient x1="-8.455%" y1="18.33%" x2="86.924%" y2="81.716%" id="l">
            <stop stop-color="#19FFF3" offset="0%" />
            <stop stop-color="#00A4FF" offset="100%" />
            <stop stop-color="#00A4FF" offset="100%" />
        </linearGradient>
        <linearGradient x1="-8.455%" y1="32.337%" x2="86.924%" y2="67.688%" id="m">
            <stop stop-color="#19FFF3" offset="0%" />
            <stop stop-color="#00A4FF" offset="100%" />
            <stop stop-color="#00A4FF" offset="100%" />
        </linearGradient>
        <linearGradient x1="124.684%" y1="50.398%" x2="-61.723%" y2="49.403%" id="n">
            <stop stop-opacity="0" offset="0%" />
            <stop stop-opacity=".41" offset="41%" />
            <stop offset="100%" />
        </linearGradient>
        <linearGradient x1="0%" y1="49.947%" x2="99.993%" y2="49.947%" id="o">
            <stop stop-color="#FFF" stop-opacity="0" offset="2%" />
            <stop stop-color="#FFF" stop-opacity=".39" offset="58%" />
            <stop stop-color="#FFF" stop-opacity=".68" offset="68%" />
            <stop stop-color="#FFF" offset="100%" />
        </linearGradient>
        <linearGradient x1="70.36%" y1="45.218%" x2="-15.035%" y2="60.363%" id="p">
            <stop stop-opacity="0" offset="0%" />
            <stop offset="99%" />
        </linearGradient>
        <linearGradient x1=".158%" y1="49.97%" x2="100.027%" y2="49.97%" id="q">
            <stop stop-color="#ECC4D7" offset="0%" />
            <stop stop-color="#EFD4D1" offset="42%" />
            <stop stop-color="#F2EAC9" offset="100%" />
        </linearGradient>
        <linearGradient x1="28.534%" y1="62.134%" x2="73.713%" y2="28.522%" id="r">
            <stop stop-color="#FFF" stop-opacity="0" offset="2%" />
            <stop stop-color="#FFF" stop-opacity=".39" offset="58%" />
            <stop stop-color="#FFF" stop-opacity=".68" offset="68%" />
            <stop stop-color="#FFF" offset="100%" />
        </linearGradient>
        <linearGradient x1="0%" y1="50.048%" x2="100.016%" y2="50.048%" id="s">
            <stop stop-color="#ECC4D7" offset="0%" />
            <stop stop-color="#EFD4D1" offset="42%" />
            <stop stop-color="#F2EAC9" offset="100%" />
        </linearGradient>
        <linearGradient x1="0%" y1="50%" x2="100.044%" y2="50%" id="t">
            <stop stop-opacity="0" offset="0%" />
            <stop offset="99%" />
        </linearGradient>
        <linearGradient x1="0%" y1="49.964%" x2="99.956%" y2="49.964%" id="u">
            <stop stop-opacity="0" offset="0%" />
            <stop offset="99%" />
        </linearGradient>
        <linearGradient x1="47.143%" y1="34.569%" x2="57.054%" y2="88.769%" id="v">
            <stop stop-opacity="0" offset="0%" />
            <stop stop-opacity=".41" offset="41%" />
            <stop offset="99%" />
        </linearGradient>
        <linearGradient x1="75.1%" y1="85.554%" x2="-52.068%" y2="-72.176%" id="w">
            <stop stop-opacity="0" offset="0%" />
            <stop offset="99%" />
        </linearGradient>
        <linearGradient x1="44.473%" y1="48.636%" x2="82.599%" y2="57.902%" id="x">
            <stop stop-opacity="0" offset="0%" />
            <stop offset="99%" />
        </linearGradient>
        <linearGradient x1="49.917%" y1="14.004%" x2="49.885%" y2=".185%" id="y">
            <stop stop-opacity="0" offset="0%" />
            <stop offset="99%" />
        </linearGradient>
        <linearGradient x1=".055%" y1="50.06%" x2="99.949%" y2="50.06%" id="z">
            <stop stop-color="#ECC4D7" offset="0%" />
            <stop stop-color="#EFD4D1" offset="42%" />
            <stop stop-color="#F2EAC9" offset="100%" />
        </linearGradient>
        <linearGradient x1="52.257%" y1="102.96%" x2="32.92%" y2="-269.986%" id="A">
            <stop stop-opacity="0" offset="0%" />
            <stop offset="99%" />
        </linearGradient>
        <linearGradient x1="-.294%" y1="49.983%" x2="99.749%" y2="49.983%" id="B">
            <stop stop-color="#ECC4D7" offset="0%" />
            <stop stop-color="#EFD4D1" offset="42%" />
            <stop stop-color="#F2EAC9" offset="100%" />
        </linearGradient>
        <linearGradient x1="-.035%" y1="49.685%" x2="100.079%" y2="49.685%" id="C">
            <stop stop-color="#ECC4D7" offset="0%" />
            <stop stop-color="#EFD4D1" offset="42%" />
            <stop stop-color="#F2EAC9" offset="100%" />
        </linearGradient>
        <linearGradient x1=".105%" y1="50.218%" x2="100.013%" y2="50.218%" id="D">
            <stop stop-color="#ECC4D7" offset="0%" />
            <stop stop-color="#EFD4D1" offset="42%" />
            <stop stop-color="#F2EAC9" offset="100%" />
        </linearGradient>
    </defs>
    <g fill="none" fill-rule="evenodd">
        <g opacity=".8">
            <g transform="translate(0 100.923)">
                <path d="M139.951 134.732l2.71 4.7 18.99-8.434 1.936 2.994s-19.72 19.584-20.9 19.313c-1.18-.27-8.911-13.957-8.911-13.957l6.175-4.616z" fill="url(#a)" fill-rule="nonzero" />
                <path fill="#6874e2" fill-rule="nonzero" d="M132.956 116.764l8.537 16.68-7.446 6.528z" />
                <path fill="url(#b)" fill-rule="nonzero" opacity=".69" d="M132.956 116.764l8.537 16.68-7.446 6.528z" />
                <path fill="#6874e2" fill-rule="nonzero" d="M149.553 148.194l4.607-31.43 18.416-.245-6.06 31.92zm51.873 94.128h5.414v-38.898c0-5.333 4.333-9.657 9.679-9.657h88.258v-5.401h-88.284c-8.318.007-15.06 6.733-15.067 15.032v38.924z" />
                <path d="M213.96 241.108h9.116v-65.824c0-9.025 7.297-16.342 16.297-16.342h42.547v-9.14h-42.601c-14.002.018-25.346 11.398-25.358 25.438v65.868z" stroke="url(#c)" stroke-width="4" stroke-linecap="round" stroke-linejoin="round" />
                <rect fill="url(#d)" fill-rule="nonzero" x="16.349" y="173.803" width="141.263" height="177.524" rx="34.55" />
                <path d="M150.25 332.052a2.707 2.707 0 012.703-2.698h23.83c5.333-.017 9.647-4.336 9.647-9.656v-25.179h5.42v25.204c0 3.987-1.587 7.81-4.413 10.63a15.085 15.085 0 01-10.654 4.403h-23.797a2.714 2.714 0 01-1.934-.783 2.7 2.7 0 01-.802-1.921zm101.01 8.518v-5.402h-38.987c-5.345 0-9.679-4.324-9.679-9.657v-25.178h-5.414v25.204c.007 8.299 6.749 15.025 15.067 15.032h39.013z" fill="#6874e2" fill-rule="nonzero" />
                <path d="M150.25 332.052h0a2.707 2.707 0 012.703-2.698h23.83c5.333-.017 9.647-4.336 9.647-9.656v-25.179h5.42v25.204c0 3.987-1.587 7.81-4.413 10.63a15.085 15.085 0 01-10.654 4.403h-23.797a2.714 2.714 0 01-1.934-.783 2.7 2.7 0 01-.802-1.921h0z" stroke="url(#e)" stroke-width="4" stroke-linecap="round" stroke-linejoin="round" />
                <path d="M251.26 340.57v-5.402h-38.987c-5.345 0-9.679-4.324-9.679-9.657v-25.178h-5.414v25.204c.007 8.299 6.749 15.025 15.067 15.032h39.013z" stroke="url(#f)" stroke-width="4" stroke-linecap="round" stroke-linejoin="round" />
                <path d="M331.236 384.379a9.125 9.125 0 01-2.676 6.472 9.167 9.167 0 01-6.48 2.682H19.078c-4.694-.014-8.616-3.567-9.083-8.226-.467-4.659 2.672-8.916 7.27-9.858a9.358 9.358 0 011.813-.18h303c5.047 0 9.142 4.074 9.157 9.11z" fill="#6874e2" fill-rule="nonzero" />
                <path fill="#6874e2" fill-rule="nonzero" d="M22.131 339.739h116.93V379.3H22.131z" />
                <path fill="url(#g)" fill-rule="nonzero" d="M22.131 339.739h116.93v29.002H22.131z" />
                <rect fill="#6874e2" fill-rule="nonzero" x=".585" y="173.803" width="141.263" height="177.53" rx="34.55" />
                <path d="M141.848 278.895v50.215c-.003 12.283-9.983 22.239-22.294 22.243H22.879a22.327 22.327 0 01-15.769-6.524A22.223 22.223 0 01.585 329.09v-50.215c0-12.284 9.982-22.242 22.294-22.242h96.675a22.32 22.32 0 0115.771 6.521 22.217 22.217 0 016.523 15.74z" fill="url(#h)" fill-rule="nonzero" />
                <path fill="#435276" fill-rule="nonzero" d="M169.395 249.017h58.32V303.9h-58.32z" />
                <g transform="translate(164.484 241.195)" fill="#6874e2" fill-rule="nonzero">
                    <rect x=".271" y=".032" width="68.592" height="21.683" rx="9.08" />
                    <rect x=".271" y="25.101" width="68.592" height="21.683" rx="9.08" />
                    <rect x=".271" y="50.17" width="68.592" height="21.683" rx="9.08" />
                </g>
                <path d="M196.677 241.343h-5.414v-38.898c0-5.333-4.333-9.657-9.679-9.657h-28.966a2.707 2.707 0 01-2.71-2.703 2.707 2.707 0 012.71-2.698h28.992a15.078 15.078 0 0110.656 4.401 15.008 15.008 0 014.41 10.631v38.924z" fill="#6874e2" fill-rule="nonzero" />
                <path d="M196.677 241.343h-5.414v-38.898c0-5.333-4.333-9.657-9.679-9.657h-28.966a2.707 2.707 0 01-2.71-2.703h0a2.707 2.707 0 012.71-2.698h28.992a15.078 15.078 0 0110.656 4.401 15.008 15.008 0 014.41 10.631v38.924z" stroke="url(#i)" stroke-width="4" stroke-linecap="round" stroke-linejoin="round" />
                <ellipse fill="url(#j)" fill-rule="nonzero" cx="223.456" cy="251.656" rx="2.304" ry="2.298" />
                <ellipse fill="url(#j)" fill-rule="nonzero" cx="217.674" cy="251.656" rx="2.304" ry="2.298" />
                <ellipse fill="url(#k)" fill-rule="nonzero" cx="211.963" cy="251.656" rx="2.304" ry="2.298" />
                <path d="M76.527 146.996H10.71a5.252 5.252 0 01-3.713-1.53 5.228 5.228 0 01-1.54-3.704v-1.114c0-7.339 5.957-13.292 13.313-13.307h5.485c0-7.35 5.97-13.31 13.337-13.313h8.796c3.538 0 6.932 1.403 9.433 3.9a13.291 13.291 0 013.904 9.413v2.717h7.44c7.183.002 13.075 5.676 13.332 12.837a3.954 3.954 0 01-1.111 2.892 3.973 3.973 0 01-2.858 1.21z" fill="#939DF3" fill-rule="nonzero" />
                <rect fill="#FFF" fill-rule="nonzero" x="18.408" y="216.319" width="106.083" height="13.185" rx="6.592" />
                <rect fill="#6874e2" fill-rule="nonzero" x="21.305" y="218.868" width="69.238" height="8.607" rx="4.304" />
                <path d="M194.862 225.976H153.09c-1.947-.01-3.519-1.492-3.519-3.317h0c0-1.822 1.575-3.299 3.519-3.299h41.77c18.037-.01 32.653-13.719 32.653-30.627v-65.814c0-19.795 17.118-35.842 38.234-35.842h83.675c19.377-.01 35.082-14.732 35.093-32.897V.976h7.056V54.18c-.01 21.818-18.875 39.503-42.15 39.512h-83.674c-17.219 0-31.177 13.086-31.177 29.227v65.814c0 20.561-17.775 37.233-39.71 37.243z" stroke="url(#l)" stroke-width="4" opacity=".15" stroke-linecap="round" stroke-linejoin="round" />
                <path d="M80.625 172.87h2.407v-1.404c-.011-7.167-5.832-12.974-13.016-12.985h-12.53c-5.54-.01-10.028-4.49-10.035-10.017v-1.97h-2.407v1.97c.007 6.853 5.572 12.408 12.441 12.419h12.538c5.857.003 10.605 4.74 10.608 10.583l-.006 1.404z" stroke="url(#m)" stroke-width="4" opacity=".15" stroke-linecap="round" stroke-linejoin="round" />
                <path d="M286.157 384.559a9.14 9.14 0 01-7.305 8.974H19.08c-4.694-.014-8.616-3.567-9.083-8.226-.467-4.659 2.672-8.916 7.27-9.858h259.74c5.047 0 9.14 4.076 9.15 9.11z" fill="url(#n)" fill-rule="nonzero" opacity=".4" />
                <path d="M105.57 128.938v36.052h29.806v-38.498s.303-12.451-6.24-11.904c-6.543.547-20.784-2.388-23.565 14.35z" fill="#6874e2" fill-rule="nonzero" />
                <path d="M105.57 128.938v36.052h29.806v-38.498s.303-12.451-6.24-11.904c-6.543.547-20.784-2.388-23.565 14.35z" fill="url(#o)" fill-rule="nonzero" opacity=".69" />
                <path d="M135.376 164.938s19.358.606 24.843 9.657c5.485 9.052 13.086 31.919 13.086 31.919l-6.91 2.717-12.358-15.593-18.661-28.7z" fill="#FFF" fill-rule="nonzero" />
                <path d="M135.376 164.938s19.358.606 24.843 9.657c5.485 9.052 13.086 31.919 13.086 31.919l-6.91 2.717-12.358-15.593-18.661-28.7z" fill="url(#p)" fill-rule="nonzero" />
                <path d="M105.57 164.938s-2.67 13.3 4.363 15.451c7.033 2.15 28.592 4.352 28.592 4.352l10.666 35.299 8.847-3.992s-3.272-38.324-7.634-43.133c-4.362-4.81-15.028-7.977-15.028-7.977h-29.805z" fill="#FFF" fill-rule="nonzero" />
                <path d="M120.722 103.702c.308-1.843.85-3.638 1.613-5.344a9.558 9.558 0 017.963-5.047c.4-.027.801 0 1.193.084.422.108.823.284 1.188.521a8.232 8.232 0 013.42 5.376 23.92 23.92 0 01.161 6.515c-.161 2.369-.594 5.15-2.71 6.225-1.471.74-3.226.36-4.82-.129a1.21 1.21 0 00-1.013 0c-.225.2-.36.48-.375.78-.361 2.304.381 4.699-.148 6.965a1.796 1.796 0 01-.82 1.288 1.94 1.94 0 01-1.29 0c-2.081-.538-4-1.575-5.588-3.02-.645-.598-2.342-1.635-2.581-2.485-.239-.85.98-2.684 1.29-3.521a59.538 59.538 0 002.517-8.208z" fill="url(#q)" fill-rule="nonzero" />
            </g>
            <path d="M105.837 128.729l8.83 17.42 9.413-7.264s-6.98-18.15-8.342-18.88c-1.361-.728-4.709-2.903-6.275-.541-1.565 2.361-3.923 6.174-3.626 9.265z" fill="url(#r)" fill-rule="nonzero" opacity=".69" transform="translate(0 100.923)" />
            <path d="M116.773 145.255s4.026 7.288 5.844 7.467c1.819.179 27.81-11.389 27.81-11.389l4.026-1.325s.915-4.478 1.097-5.413c.182-.934 1.643-4.1-.37-4.478-2.013-.378-5.111 2.26-5.111 2.26l-1.468 3.736-21.95 6.903-2.254-4.041-7.624 6.28z" fill="url(#s)" fill-rule="nonzero" transform="translate(0 100.923)" />
            <path d="M140.512 194.658c.934-2.064.086-4.941-2.133-5.633-1.829-.577-3.77.43-5.691.468-1.636 0-3.2-.641-4.823-.827-3.971-.33-7.61 2.158-8.613 5.889a6.137 6.137 0 01-.483 1.621c-.663 1.16-2.359 1.64-2.69 2.929a3.27 3.27 0 00.265 1.864l2.107 6.069c.238.68.775 1.512 1.477 1.282.391-.129.577-.552.722-.936l1.411-3.8c1.272-.109.994 2.755 2.26 2.563.821-.128.662-1.281.457-2.089a3.966 3.966 0 01.723-3.045 4.227 4.227 0 012.742-1.652 5.292 5.292 0 001.808-.288c.358-.26.732-.5 1.12-.718 1.557-.564 3.206.698 4.982.045 1.897-.659 3.458-1.999 4.359-3.742z" fill="#3F3D56" fill-rule="nonzero" />
            <path fill="#6874e2" fill-rule="nonzero" d="M155.455 317.195l1.262 3.686 9.746-.192-12.27 6.002-2.345-8.134z" />
            <path fill="url(#t)" fill-rule="nonzero" d="M154.725 217.734l1.268 3.681 9.74-.193-12.27 6.007-2.346-8.14z" transform="translate(0 100.923)" />
            <path fill="#6874e2" fill-rule="nonzero" d="M172.262 306.97l1.262 3.68 9.746-.192-12.27 6.007-2.345-8.14z" />
            <path fill="url(#u)" fill-rule="nonzero" d="M170.8 206.046l1.26 3.686 9.748-.2-12.27 6.01-2.344-8.141z" transform="translate(0 100.923)" />
            <g transform="translate(303.926 263.135)" fill-rule="nonzero">
                <rect fill="#6874e2" x=".218" y=".211" width="77.936" height="92.579" rx="10.91" />
                <path d="M74.499 10.82v69.373a7.18 7.18 0 01-2.097 5.079 7.151 7.151 0 01-5.069 2.1H11.199a7.159 7.159 0 01-5.071-2.1 7.187 7.187 0 01-2.102-5.08v-69.37C4.03 6.854 7.24 3.64 11.2 3.64h56.134c1.9 0 3.723.756 5.067 2.103A7.187 7.187 0 0174.5 10.82z" fill="#FFF" />
                <path fill="#6874e2" opacity=".18" d="M13.605 36.437l10.181-4.565 12.319 10.464 12.587-16.632 12.587 17.71v12.24H14.1z" />
                <rect fill="url(#v)" x="35.872" y="88.698" width="8.14" height="2.41" rx="1.205" />
                <path fill="#6874e2" d="M65.16 56.112H13.387V21.677h.712V55.4H65.16z" />
                <path fill="#6874e2" d="M21.41 30.197h4.121v25.457H21.41zm25.705-6.248h4.121v31.712h-4.121zM34.063 40.195h4.121v15.459h-4.121zm24.636 0h4.121v15.459h-4.121z" />
                <path d="M74.499 10.82v6.314L4.004 55.646V10.821c.004-3.967 3.215-7.18 7.173-7.18h56.134a7.159 7.159 0 015.081 2.095 7.187 7.187 0 012.107 5.085z" fill="#6874e2" opacity=".18" />
            </g>
            <g transform="translate(247.512 415.206)" fill-rule="nonzero">
                <rect fill="#6874e2" width="34.339" height="54.778" rx="9" />
                <path d="M31.929 7.458v35.054c0 1.338-.525 2.62-1.46 3.566a4.957 4.957 0 01-3.525 1.477H7.399a4.957 4.957 0 01-3.528-1.476 5.072 5.072 0 01-1.461-3.567V7.458c0-2.787 2.233-5.048 4.989-5.05h19.545a4.96 4.96 0 013.527 1.48 5.076 5.076 0 011.458 3.57z" fill="#FFF" />
                <rect fill="#FFF" x="12.049" y="49.361" width="10.844" height="3.612" rx="1.806" />
                <path d="M31.929 21.84v20.683a5.055 5.055 0 01-1.46 3.558 4.962 4.962 0 01-3.525 1.474H7.399a4.962 4.962 0 01-3.528-1.472 5.055 5.055 0 01-1.461-3.56v-4.385l29.507-18.273.012 1.974z" fill="#6874e2" opacity=".18" />
            </g>
        </g>
        <g opacity=".8" fill-rule="nonzero">
            <path d="M333.062 156.452a2.218 2.218 0 00-.38-1.325 1.008 1.008 0 00-1.244-.31c-.225.132-.374.38-.61.5-.237.121-.628-.046-.548-.3-1.077.168-1.831 1.107-2.753 1.683-.732.449-1.584.68-2.304 1.117-.72.438-1.394 1.216-1.302 2.068.067.267.098.542.092.818-.053.19-.127.373-.219.547a2.46 2.46 0 00.213 1.913c.288.576.686 1.152.922 1.728.167.628.379 1.244.634 1.843.322.576 1.03 1.002 1.618.72-.49-.749-.184-1.728.167-2.575.576-1.325 1.239-2.696 2.466-3.456a4.68 4.68 0 001.336-.933c.244-.356.467-.725.668-1.106.64-.968 1.268-1.642 1.244-2.932z" fill="#3F3D56" />
            <path d="M322.02 165.34a2.091 2.091 0 00-.576-.576c-.708-.409-1.578.127-2.2.657a30.045 30.045 0 00-2.431 2.338c-.28.261-.48.594-.582.962-.04.355.018.713.167 1.037a14.671 14.671 0 004.067 5.899c.272.28.624.47 1.008.541.376 0 .744-.108 1.06-.31l4.51-2.305c.818-.42 1.791-1.054 1.434-2.131-.236-.697-.979-.933-1.538-1.33a23.986 23.986 0 01-4.919-4.782z" fill="#6874e2" />
            <path d="M79.57 165.52a2.074 2.074 0 00-.576-.575c-.709-.41-1.578.12-2.2.65a30.046 30.046 0 00-2.437 2.334 2.08 2.08 0 00-.605.979c-.04.356.019.716.167 1.042a14.694 14.694 0 004.067 5.893 1.9 1.9 0 001.008.547 2.016 2.016 0 001.06-.316l4.51-2.305c.818-.42 1.792-1.054 1.434-2.13-.236-.692-.979-.928-1.538-1.331a23.842 23.842 0 01-4.89-4.787z" fill="url(#w)" transform="translate(242.45 -.129)" />
            <path d="M332.711 176.273c.547 2.275.38 4.649.207 6.981-.512 7.086-1.042 14.251-3.26 20.997-.576 1.791-1.37 3.64-2.88 4.734-2.494 1.78-6.244.801-8.22-1.538-1.976-2.338-2.46-5.622-2.2-8.674.259-3.053 1.152-6.008 1.688-9.027.858-5.08 0-13.064 3.496-17.28 3.733-4.54 10.017-1.032 11.17 3.807z" fill="#6874e2" />
            <path d="M90.261 176.402c.547 2.275.38 4.648.207 6.981-.512 7.085-1.042 14.251-3.26 20.996-.576 1.792-1.37 3.64-2.88 4.735-2.494 1.78-6.244.801-8.22-1.538-1.976-2.338-2.46-5.622-2.2-8.675.259-3.052 1.152-6.007 1.687-9.026.859-5.08 0-13.064 3.497-17.28 3.733-4.54 10.017-1.032 11.17 3.807z" fill="url(#x)" transform="translate(242.45 -.129)" />
            <path d="M329.22 205.426c-.126.667-.218 1.34-.276 2.016a57.113 57.113 0 01-4.315 12.5c-.892 1.866-1.9 3.703-2.442 5.702-.754 2.76-.576 5.691-.213 8.531.501 3.911 1.596 6.561 2.43 10.415-.679.472-6.572 4.118-7.401 4.222-1.67-1.118 2.88-4.516 2.828-5.098-.242-2.984-.576-3.727-1.469-6.296-.749-2.218-1.509-4.435-2.131-6.688a22.108 22.108 0 01-1.02-6.86c.123-1.6.391-3.184.801-4.735l1.85-8.018-7.49 5.76a2.984 2.984 0 00-.869.893 2.88 2.88 0 00-.173 1.676 47.758 47.758 0 003.612 13.905l-4.2 4.217a6.601 6.601 0 01-2.574 1.826c-.691-.668-.363-1.85.184-2.638.547-.79 2.235-1.953 2.304-2.91.035-.42-1.566-2.781-1.67-3.185-1.21-4.861-1.93-7.356-2.454-12.338a13.053 13.053 0 010-3.577c.49-2.713 2.437-4.902 4.309-6.913 2.822-3.07 4.97-5.53 7.373-8.312 1.152 1.412 2.638 3.963 8.122 5.375 2.177.535 3.577.23 4.884.53z" fill="#3F3D56" />
            <path d="M467.512 158.693h-2.822v-57.655a7.488 7.488 0 00-7.488-7.488h-17.857v-2.828h17.857c5.685.006 10.293 4.614 10.299 10.3l.011 57.67z" fill="#6874e2" />
            <path d="M439.443 87.686c-.007 14.068-11.41 25.471-25.478 25.478h-52.689a23.423 23.423 0 01-3.456-.248 34.21 34.21 0 01-4.159.248h-74.226a35.904 35.904 0 110-71.802h14.62C296.937 18.608 315.878 1.292 338.8.457c22.92-.837 43.073 15.052 47.608 37.535h4.54c12.993-.003 23.53 10.526 23.536 23.52v.702c13.867.28 24.962 11.602 24.959 25.472z" fill="#858FEB" />
            <path fill="#6874e2" d="M324.49 266.08l-4.716.443V113.048h4.716z" />
            <path fill="url(#y)" d="M77.324 274.827v-161.65h4.905v161.184z" transform="translate(242.45 -.129)" />
            <path d="M77.813 177.635a1.584 1.584 0 00-1.112-.576c-.656.046-.985.818-1.077 1.474a7.189 7.189 0 000 2.195c.34 2.08 1.55 3.9 2.736 5.65a64.204 64.204 0 004.96 6.665 9.009 9.009 0 002.828 2.304c1.115.57 2.44.544 3.531-.069 1.29-.83 1.682-2.505 1.97-4.032l.864-4.637a2.045 2.045 0 000-1.233 1.935 1.935 0 00-.714-.731 2.811 2.811 0 00-1.233-.576c-1.238-.133-2.137 1.152-2.454 2.367-.316 1.216-.42 2.558-1.29 3.456l-4.977-5.766a3.33 3.33 0 01-1.013-1.935c.054-.54.154-1.073.3-1.596.074-.535-.122-1.198-.646-1.33a1.768 1.768 0 01-.501.714c-.778-.65-1.406-1.619-2.172-2.344z" fill="url(#z)" transform="translate(242.45 -.129)" />
            <path d="M330.056 178.375l-.548 7.316a1.1 1.1 0 00.715 1.336l4.856 2.754c1.25-2.022 1.353-4.528 1.324-6.913a24.65 24.65 0 00-.483-5.184 7.627 7.627 0 00-.888-2.304 5.334 5.334 0 00-1.785-1.762c-.501-.3-3.456-2.305-3.963-1.878-.576.518 1.261 3.099 1.106 3.836-.173.925-.285 1.86-.334 2.8z" fill="#6874e2" />
            <path d="M87.606 178.504l-.548 7.316a1.1 1.1 0 00.715 1.336l4.856 2.754c1.25-2.022 1.353-4.528 1.324-6.913a24.65 24.65 0 00-.483-5.184 7.627 7.627 0 00-.888-2.304 5.334 5.334 0 00-1.785-1.763c-.501-.3-3.456-2.304-3.963-1.877-.576.518 1.261 3.099 1.106 3.836-.173.925-.285 1.86-.334 2.8z" fill="url(#A)" transform="translate(242.45 -.129)" />
            <path d="M80.117 153.084a5.075 5.075 0 01-1.255 3.255c-.478.398-.925.831-1.337 1.296-.691.939-.616 2.212-.518 3.376.126 1.503.259 3.006.386 4.516-.814.456-1.585.984-2.304 1.578a23.755 23.755 0 01-1.308-2.95 7.673 7.673 0 01-.703-2.257 6.336 6.336 0 01.075-1.475 16.56 16.56 0 013.692-8.15.501.501 0 01-.109-.266 6.066 6.066 0 01.098-2.114.397.397 0 01.213-.328c.15-.052.3.086.38.225.24.422.386.892.426 1.376a16.129 16.129 0 011.884-1.607 15.5 15.5 0 01.38 3.525z" fill="url(#B)" transform="translate(242.45 -.129)" />
            <path d="M84.247 172.635a1.28 1.28 0 001.521.351 5.478 5.478 0 001.555-.973.997.997 0 00.283-.283.968.968 0 00.086-.386c.058-.748.098-1.503.115-2.258.017-.754-.029-1.797-.668-2.344a.605.605 0 00-.282-.161.922.922 0 00-.375.034 3.761 3.761 0 00-1.388.576c-.783.576-.968 1.728-1.002 2.633-.029.754-.248 2.131.155 2.81z" fill="url(#C)" transform="translate(242.45 -.129)" />
            <path d="M90.342 161.938s.161 4.458-.53 5.887c-.691 1.428-3.612 1.434-4.724.265-1.111-1.17-2.304-4.453-1.699-7.27.605-2.816 5.945-4.855 6.953 1.118z" fill="url(#D)" transform="translate(242.45 -.129)" />
            <path d="M329.1 158.722a3.29 3.29 0 00-1.504 2.027 9.648 9.648 0 00-.282 2.575l-.029 1.313a2.748 2.748 0 00-1.123-.91 2.523 2.523 0 00.161 1.918c.118.178.21.372.27.576a.501.501 0 01-.212.576c-.317.15-.623-.224-.778-.541-.616-1.262-1.256-2.633-1.002-4.032.109-.507.285-.997.524-1.458a7.281 7.281 0 012.425-3.11 3.456 3.456 0 012.995-.403c1.711.65-.898 1.175-1.446 1.469z" fill="#3F3D56" />
        </g>
        <g opacity=".8" transform="translate(401.164 157.666)" fill-rule="nonzero">
            <path d="M105.017 42.826a18.246 18.246 0 01-18.26 18.26H18.48C8.49 61.203.262 53.267.017 43.28-.228 33.292 7.6 24.963 17.584 24.59a17.597 17.597 0 0117.3-14.553h2.33a17.616 17.616 0 0111.191 4.02C52.098 4.579 62.023-.92 72.017.975 82.01 2.87 89.234 11.62 89.2 21.792a15.73 15.73 0 01-.247 2.938c9.162 1.1 16.059 8.869 16.064 18.096z" fill="#6874e2" />
            <path d="M105.017 42.826a18.246 18.246 0 01-18.26 18.26H18.48C8.49 61.203.262 53.267.017 43.28-.228 33.292 7.6 24.963 17.584 24.59a17.597 17.597 0 0117.3-14.553h2.33a17.616 17.616 0 0111.191 4.02C52.098 4.579 62.023-.92 72.017.975 82.01 2.87 89.234 11.62 89.2 21.792a15.73 15.73 0 01-.247 2.938c9.162 1.1 16.059 8.869 16.064 18.096z" fill="#939DF3" opacity=".4" />
            <path d="M18.358 84.493H6.776a1.399 1.399 0 010-2.798h11.582a3.236 3.236 0 003.236-3.236V58.521a1.399 1.399 0 012.798 0v19.952a6.029 6.029 0 01-6.034 6.02zm69.136 0H75.91a6.029 6.029 0 01-6.024-6.02V58.521a1.399 1.399 0 012.798 0v19.952a3.236 3.236 0 003.236 3.236h11.582a1.399 1.399 0 010 2.798l-.01-.014zm-38.529 25.804a1.399 1.399 0 01-1.399-1.399v-48.81a1.399 1.399 0 112.798 0v48.815a1.399 1.399 0 01-1.399 1.394z" fill="#6874e2" />
            <path fill="#6874e2" d="M35.522 103.2l26.214 3.903-4.425 24.12-26.545-4.615z" />
            <path fill="#FFF" d="M35.284 102.725l26.215 3.902-4.425 24.121-26.546-4.616z" />
            <path fill="#6874e2" opacity=".44" d="M35.522 103.2l25.501 3.973-4.388 22.978-25.654-4.495z" />
            <path fill="#FFF" d="M37.331 105.532l-2.569 14.273 11.704-5.279 3.851 5.423-2.709 2.425 6.043-3.903 2.71 3.52 2.713-12.748z" />
            <circle fill="#FFF" cx="49.054" cy="79.746" r="4.36" />
            <path d="M49.054 85.496a5.754 5.754 0 11-.01-11.508 5.754 5.754 0 01.01 11.508zm0-8.715a2.966 2.966 0 100 5.93 2.966 2.966 0 000-5.93z" fill="#6874e2" />
            <circle fill="#FFF" cx="71.542" cy="72.775" r="4.36" />
            <path d="M71.542 78.525a5.754 5.754 0 110-11.508 5.754 5.754 0 010 11.508zm0-8.72a2.966 2.966 0 102.966 2.966 2.97 2.97 0 00-2.966-2.952v-.014z" fill="#6874e2" />
            <circle fill="#FFF" cx="23.077" cy="72.775" r="4.36" />
            <path d="M23.077 78.525a5.754 5.754 0 115.75-5.754 5.763 5.763 0 01-5.75 5.754zm0-8.72a2.966 2.966 0 102.966 2.966 2.97 2.97 0 00-2.966-2.952v-.014z" fill="#6874e2" />
        </g>
        <g fill-rule="nonzero">
            <path fill="#6874e2" opacity=".44" d="M420.637 261.127l-23.487 6.668-9.535-33.572.522-.784 17.467-4.327 3.819 1.264 2.886 1.431 8.85 28.537z" />
            <path fill="#FFF" d="M419.524 260.344l-23.487 6.668-9.535-33.573 17.99-5.11 3.818 1.259 2.886 1.436z" />
            <path d="M404.417 228.329l4.056 5.129 2.798-2.527s-3.716-1.917-6.854-2.602z" fill="#6874e2" opacity=".44" />
            <path d="M410.108 233.444s1.632-.62 2.187-.13c.555.489 7.652 27.393 7.652 27.393l1.212-.368-8.272-29.422-2.779 2.527z" fill="#6874e2" opacity=".1" />
            <path fill="#6874e2" opacity=".44" d="M392.079 239.739l16.1-4.267.327 1.026-16.082 4.337zm1.044 3.595l16.1-4.267.327 1.026-16.082 4.337zm1.049 3.599l16.096-4.266.331 1.021-16.086 4.337zm1.045 3.596l16.1-4.267.327 1.021-16.082 4.337z" />
        </g>
        <g fill-rule="nonzero">
            <path fill="#6874e2" opacity=".44" d="M481.59 255.822l16.029 4.51 6.507-22.707-.356-.53-11.92-2.926-2.607.854-1.97.968-6.04 19.3z" />
            <path fill="#FFF" d="M482.869 255.004l15.7 4.51 6.375-22.707-12.026-3.456-2.553.851-1.93.972z" />
            <path d="M492.68 234.169l-2.903 3.27-2.003-1.612s2.66-1.221 4.906-1.658z" fill="#6874e2" opacity=".44" />
            <path d="M489.41 236.72s-1.087-.425-1.457-.09c-.37.336-5.095 18.796-5.095 18.796l-.807-.253 5.508-20.187 1.85 1.734z" fill="#6874e2" opacity=".1" />
            <path fill="#6874e2" opacity=".44" d="M501.673 241.676l-11.219-2.602-.227.626 11.206 2.644zm-.817 1.635l-11.22-2.602-.227.626 11.206 2.645zm-.818 2.455l-11.215-2.604-.231.623 11.209 2.647zm-.818 2.454l-11.218-2.605-.228.623 11.206 2.647z" />
        </g>
    </g>
</svg>