<?xml version="1.0" standalone="no"?><!DOCTYPE svg PUBLIC "-//W3C//DTD SVG 1.1//EN" "http://www.w3.org/Graphics/SVG/1.1/DTD/svg11.dtd"><svg t="1515469651233" class="icon" style="fill:#fff" viewBox="0 0 1024 1024" version="1.1" xmlns="http://www.w3.org/2000/svg" p-id="1527" xmlns:xlink="http://www.w3.org/1999/xlink" width="200" height="200"><defs><style type="text/css"></style></defs><path d="M534.377148 64.11832c302.340933 0 317.210595 288.721751 317.210595 288.721751 45.862537 60.731176 21.084201 115.245767 21.084201 115.245767 147.456377 231.735875 52.05047 298.68466 26.02677 303.621089-26.02677 4.937452-50.829665-28.51852-50.829665-28.51852s-8.650007 33.429367-29.740348 50.823526c76.854389 35.897581 63.201437 80.536244 63.201437 80.536244s-16.117073 134.765333-335.797929 49.576115l-27.27111-4.964058c-306.406528 110.594841-344.484775-38.423101-344.484775-38.423101s-12.401448-61.926398 47.078225-85.505419c-34.707476-21.084201-47.078225-65.669652-47.078225-65.669652s-30.992875 50.79692-71.881121 32.212656c-40.895409-18.587334-65.668629-183.380564 87.973634-302.33991 0 0-22.280446-70.63678 28.517497-112.778576C218.386334 346.656231 232.035192 64.11832 534.377148 64.11832M265.464559 362.773304c-66.916039 56.986899-22.303982 114.024963-22.303982 114.024963C95.705224 567.267744 121.729947 713.472618 121.729947 713.472618s23.52274-11.789511 40.251749-45.857421c16.731056-34.07098 42.754756 5.574972 42.754756 5.574972s16.117073 78.070076 65.462944 108.651582c49.348941 30.582529-2.174526 50.095955-2.174526 50.095955s-54.318116 0.788969-49.63956 37.673018c4.673439 36.885072 179.871647 83.065857 285.004079 1.24741l55.757908 7.437389c183.415356 63.783699 273.856182 4.298909 279.895735-7.111978 6.0416-11.411911-27.704992-33.809013-58.724473-46.788629-31.022551-12.986779-39.003316-26.66736-11.562337-44.936445 27.445072-18.262946 38.281885-54.513568 54.342676-92.036159 16.054651-37.525662 40.250726-19.197224 43.3626-8.650007 3.105734 10.541077 26.02063 45.825698 26.02063 45.825698s59.743686-63.312978-64.446801-250.297626c0 0 26.951839-56.026014-18.591427-101.592816 0 0-11.124362-262.724657-280.062534-262.724657C260.442172 109.98188 265.464559 362.773304 265.464559 362.773304" p-id="1528"></path></svg>