<svg width="10" height="12" viewBox="0 0 10 12" xmlns="http://www.w3.org/2000/svg"><defs><linearGradient x1="50%" y1="0%" x2="50%" y2="100%" id="a"><stop stop-color="#A6EC00" offset="0%"/><stop stop-color="#6DD400" stop-opacity=".152" offset="100%"/></linearGradient></defs><path d="M6.253.509a.33.33 0 00-.507 0L1.574 5.262c-.14.159-.079.289.136.289h1.56c.214 0 .39.17.39.38v3.046c0 .21.175.381.39.381h3.899c.214 0 .39-.171.39-.38V5.93c0-.21.175-.38.39-.38h1.559c.215 0 .276-.13.136-.289L6.253.51zM5.219 10.881a.77.77 0 01-.78.761.77.77 0 01-.78-.761.77.77 0 01.78-.762.77.77 0 01.78.762zm3.12 0a.77.77 0 01-.78.761.77.77 0 01-.78-.761.77.77 0 01.78-.762c.43 0 .78.341.78.762zm-3.9-.762h3.12v1.523h-3.12V10.12z" transform="translate(-1)" fill="url(#a)"/></svg>